<?xml version="1.0" encoding="utf-8"?>
<!-- Generator: Adobe Illustrator 23.0.1, SVG Export Plug-In . SVG Version: 6.00 Build 0)  -->
<svg version="1.1" id="Layer_1" xmlns="http://www.w3.org/2000/svg" xmlns:xlink="http://www.w3.org/1999/xlink" x="0px" y="0px"
	 viewBox="0 0 56 56" style="enable-background:new 0 0 56 56;" xml:space="preserve">
<style type="text/css">
	.st0{fill-rule:evenodd;clip-rule:evenodd;fill:#545E6B;}
	.st1{fill-rule:evenodd;clip-rule:evenodd;fill:#FACB04;}
</style>
<title>2</title>
<desc>Created with Sketch.</desc>
<g>
	<circle class="st0" cx="28" cy="30.2" r="23.7"/>
	<path class="st1" d="M28,0C12.5,0,0,12.5,0,28s12.5,28,28,28s28-12.5,28-28S43.5,0,28,0z M37.5,20c1.9,0,3.5,1.6,3.5,3.5
		S39.4,27,37.5,27S34,25.4,34,23.5S35.6,20,37.5,20z M17.5,20c1.9,0,3.5,1.6,3.5,3.5S19.4,27,17.5,27S14,25.4,14,23.5
		S15.6,20,17.5,20z M40.4,44c-1.1,0.2-2.1-0.4-2.4-1.4c-0.9-3.7-3.9-6.6-7.8-7.4c-5.5-1.2-11.1,2.1-12.3,7.4c-0.2,1-1.3,1.7-2.4,1.4
		s-1.8-1.3-1.5-2.3c1.7-7.4,9.4-12,17.1-10.3c5.4,1.2,9.6,5.2,10.8,10.3C42.2,42.7,41.5,43.7,40.4,44z"/>
</g>
</svg>
