<?xml version="1.0" encoding="utf-8"?>
<!-- Generator: Adobe Illustrator 23.0.1, SVG Export Plug-In . SVG Version: 6.00 Build 0)  -->
<svg version="1.1" id="Layer_1" xmlns="http://www.w3.org/2000/svg" xmlns:xlink="http://www.w3.org/1999/xlink" x="0px" y="0px"
	 viewBox="0 0 56 56" style="enable-background:new 0 0 56 56;" xml:space="preserve">
<style type="text/css">
	.st0{fill-rule:evenodd;clip-rule:evenodd;fill:#545E6B;}
	.st1{fill-rule:evenodd;clip-rule:evenodd;fill:#FACB04;}
</style>
<title>4</title>
<desc>Created with Sketch.</desc>
<g>
	<circle class="st0" cx="28" cy="28.6" r="23.7"/>
	<path class="st1" d="M28,0C12.5,0,0,12.5,0,28s12.5,28,28,28s28-12.5,28-28S43.5,0,28,0z M14,23.5c0-1.9,1.6-3.5,3.5-3.5
		s3.5,1.6,3.5,3.5S19.4,27,17.5,27S14,25.4,14,23.5z M39.5,38.8c-0.3,0.3-0.7,0.6-1,0.9c-6.3,4.8-16.2,4.4-21.9-0.9
		c-0.7-0.7-0.7-1.7,0.1-2.3s2.1-0.6,2.8,0.1c4.3,3.9,11.6,4.2,16.3,0.6c0.3-0.2,0.5-0.4,0.8-0.6c0.7-0.7,2-0.7,2.8-0.1
		S40.2,38.1,39.5,38.8z M37.5,27c-1.9,0-3.5-1.6-3.5-3.5s1.6-3.5,3.5-3.5s3.5,1.6,3.5,3.5S39.4,27,37.5,27z"/>
</g>
</svg>
