<?xml version="1.0" encoding="utf-8"?>
<!-- Generator: Adobe Illustrator 23.0.1, SVG Export Plug-In . SVG Version: 6.00 Build 0)  -->
<svg version="1.1" id="Layer_1" xmlns="http://www.w3.org/2000/svg" xmlns:xlink="http://www.w3.org/1999/xlink" x="0px" y="0px"
	 viewBox="0 0 56 56" style="enable-background:new 0 0 56 56;" xml:space="preserve">
<style type="text/css">
	.st0{fill-rule:evenodd;clip-rule:evenodd;fill:#545E6B;}
	.st1{fill-rule:evenodd;clip-rule:evenodd;fill:#CE002A;}
	.st2{fill-rule:evenodd;clip-rule:evenodd;fill:#FACB04;}
</style>
<title>5</title>
<desc>Created with Sketch.</desc>
<g>
	<rect x="13.1" y="28" class="st0" width="29.5" height="16"/>
	<rect x="7.6" y="10.1" class="st1" width="41" height="15.8"/>
	<path class="st2" d="M28,0C12.5,0,0,12.5,0,28s12.5,28,28,28s28-12.5,28-28S43.5,0,28,0z M9,17.8c-0.2-1.4,0.6-2.8,2-3.6
		c1.1-0.6,2.3-0.6,3.4-0.3c0.4,0.1,0.9,0,1.2-0.4c0.6-0.8,1.6-1.4,2.9-1.6c1.6-0.2,3.1,0.5,3.9,1.8c2.1,3.2-1.5,7.9-3.1,9.7
		c-0.4,0.4-1,0.6-1.6,0.5C15.4,23.4,9.4,21.5,9,17.8z M37.2,38c-2.2,3.2-5.4,5-9.2,5s-7-1.8-9.2-5c-0.9-1.3-1.9-3.7-2.8-7.1
		c3.7-1.3,7.7-1.9,12-1.9c3.1,0,7.1,0.6,12,1.9C39.1,34.3,38.1,36.7,37.2,38z M47,17.8c-0.4,3.7-6.4,5.5-8.7,6.1
		c-0.6,0.1-1.2,0-1.6-0.5c-1.5-1.8-5.1-6.5-3.1-9.7c0.8-1.2,2.4-1.9,3.9-1.8c1.3,0.1,2.3,0.7,2.9,1.6c0.3,0.3,0.7,0.5,1.2,0.4
		c1.1-0.3,2.3-0.3,3.4,0.3C46.3,15,47.1,16.4,47,17.8z"/>
</g>
</svg>
